<?xml version="1.0" encoding="utf-8"?>
<!-- Generator: Adobe Illustrator 25.1.0, SVG Export Plug-In . SVG Version: 6.00 Build 0)  -->
<svg version="1.1" id="Capa_1" xmlns="http://www.w3.org/2000/svg" xmlns:xlink="http://www.w3.org/1999/xlink" x="0px" y="0px"
	 viewBox="0 0 841.89 595.28" style="enable-background:new 0 0 841.89 595.28;" xml:space="preserve">
<style type="text/css">
	.st0{fill:none;stroke:#E63528;stroke-miterlimit:10;}
	.st1{fill:none;}
	.st2{fill:#E63528;}
	.st3{font-family:'MyriadPro-Regular';}
	.st4{font-size:324.1297px;}
	.st5{fill:none;stroke:#E63528;stroke-width:7;stroke-miterlimit:10;}
	.st6{font-size:175.5703px;}
</style>
<polyline class="st0" points="210.74,176.28 131.1,176.28 131.1,423.5 210.74,423.5 "/>
<rect x="218.22" y="186.54" class="st1" width="229.59" height="301.24"/>
<text transform="matrix(1 0 0 1 218.2196 416.6704)" class="st2 st3 st4">A</text>
<polyline class="st5" points="565.85,176.28 645.49,176.28 645.49,423.5 565.85,423.5 "/>
<text transform="matrix(1 0 0 1 413.2303 323.8838)" class="st2 st3 st6">/&gt;</text>
<rect x="201.2" y="170.15" class="st0" width="12.26" height="12.26"/>
<rect x="164.79" y="170.15" class="st0" width="12.26" height="12.26"/>
<rect x="124.97" y="170.15" class="st0" width="12.26" height="12.26"/>
<rect x="124.97" y="231.95" class="st0" width="12.26" height="12.26"/>
<rect x="124.97" y="355.57" class="st0" width="12.26" height="12.26"/>
<rect x="124.97" y="293.76" class="st0" width="12.26" height="12.26"/>
<rect x="124.97" y="417.37" class="st0" width="12.26" height="12.26"/>
<rect x="165.49" y="417.37" class="st0" width="12.26" height="12.26"/>
<rect x="204.61" y="417.37" class="st0" width="12.26" height="12.26"/>
</svg>
